<svg xmlns="http://www.w3.org/2000/svg" xmlns:xlink="http://www.w3.org/1999/xlink" version="1.1" class="bottom" x="0px" y="0px" viewBox="0 0 1024 135" enable-background="new 0 0 1024 135" xml:space="preserve" preserveAspectRatio="xMinYMin meet" width="100%" height="100%">
<g class="plants">
	<g>
		<g>
			<g>
				<path d="M213.2 20.2c21.6-5.7 21.1 24.2 20.8 37.3c-0.4 15.2-0.6 31.4 9.1 44.2c2.3 3 7.5 0.1 5.2-3 c-12.8-16.8-6.7-38.5-8.4-57.9c-1.3-15.2-10.7-30.9-28.2-26.3C207.9 15.4 209.5 21.2 213.2 20.2L213.2 20.2z" class="style0"/>
			</g>
		</g>
		<g>
			<g>
				<path d="M238.4 48.3c19.9 2.2 29.1-23.7 24.5-39.6c-1.1-3.7-6.9-2.1-5.8 1.6c3.7 12.4-2.8 33.8-18.7 32 C234.6 41.9 234.6 47.9 238.4 48.3L238.4 48.3z" class="style0"/>
			</g>
		</g>
		<g>
			<g>
				<path d="M233.3 27.4c5.9-4.4 13.1-12.2 7.4-19.8c-2.3-3.1-7.5-0.1-5.2 3c3.4 4.6-1.8 9-5.3 11.6 C227.2 24.5 230.2 29.7 233.3 27.4L233.3 27.4z" class="style0"/>
			</g>
		</g>
		<g>
			<g>
				<path d="M211.1 48.2c-1.6 5.6 0.7 11.1 5.1 14.7c5.3 4.3 12.5 4.5 19 4.6c3.9 0.1 3.9-5.9 0-6 c-6.6-0.1-21.4-1.4-18.4-11.7C218 46.1 212.2 44.5 211.1 48.2L211.1 48.2z" class="style0"/>
			</g>
		</g>
		<g>
			<g>
				<path d="M237.6 81.8c11.8 2.2 22.5-6.6 21.8-18.8c-0.2-3.8-6.2-3.9-6 0c0.5 8-6.1 14.5-14.2 13 C235.4 75.3 233.8 81.1 237.6 81.8L237.6 81.8z" class="style0"/>
			</g>
		</g>
		<g>
			<g>
				<path d="M260.3 28.3c7.8-0.4 14.8-4.9 18.3-11.9c1.7-3.5-3.5-6.5-5.2-3c-2.5 5.2-7.3 8.6-13.1 9 C256.5 22.5 256.5 28.5 260.3 28.3L260.3 28.3z" class="style0"/>
			</g>
		</g>
		<g>
			<g>
				<path d="M196.2 52.4c1.4 8.1 10.6 8.2 16.9 7.2c3.8-0.6 2.2-6.4-1.6-5.8c-3.2 0.5-8.8 1.4-9.5-3 C201.3 47 195.5 48.6 196.2 52.4L196.2 52.4z" class="style0"/>
			</g>
		</g>
		<g>
			<g>
				<path d="M254.4 73.5c5.1 2.2 10.8 0 14-4.3c2.3-3.1-2.9-6.1-5.2-3c-1.7 2.3-4.8 2.6-7.2 1.5 c-1.5-0.6-3.3 0.7-3.7 2.1C251.8 71.6 252.9 72.9 254.4 73.5L254.4 73.5z" class="style0"/>
			</g>
		</g>
	</g>
	<g>
		<g>
			<path d="M225.6 106.7c5.9-3.1 9.3-9.5 13.8-14.3c-3.2-0.3-6.4-0.2-9.5 0.3c-2.9 3.4-6.1 6.6-10.4 8.3 c-4 1.6-8.3 1.8-12.6 1.6c-0.3 0.2-0.5 0.4-0.8 0.5c-3.2 2.2-5.7 5.3-7.8 8.6c1.2-0.9 2.4-1.7 3.8-2.2 C209.7 106.3 218.3 110.6 225.6 106.7z" class="style1"/>
		</g>
		<g>
			<path d="M238.4 119.7c2.6-1.2 5.6-1.7 7.8-3.6c2-1.7 3.2-4.2 4.4-6.4c1.7-3 3.3-5.8 7-6.3 c3.5-0.5 7.2-0.4 10.9-0.3c-2-2-4.3-3.7-7-4.8c-2.1 1-4.4 1.6-7.5 1.9c-6.4 0.7-9.9 5.8-13.8 10.3c-3 3.6-6.3 7-10.8 8.5 c-6.7 2.3-14 0.2-20.5 3.4c-1.7 0.9-3.2-1.7-1.5-2.6c5.4-2.7 11.1-2.1 16.9-2.9c6.6-0.8 10.5-4.7 14.6-9.6 c3-3.6 6.1-7.5 10.6-9.2c2.1-0.8 3.9-0.8 6.1-1c0 0 0.1 0 0.1 0c-0.4-0.1-0.8-0.1-1.1-0.2c-1.6-0.4-3.1-1.2-4.6-1.8 c-2.3-1-4.6-1.7-6.8-2.2c-1.6 1.4-3 3-4.5 4.8c-3.2 3.9-6.2 8.1-10.5 10.8c-5.5 3.5-11.2 2.5-17.4 2.4c-6.9 0-12.7 3-15.3 9.1 c0 0.1 0 0.2 0.1 0.3c1.7 0.9 3.6 1.6 5.6 2.3c8.3 2.9 18.3 4.4 26.4 4.7c1.7 0.1 3.4 0.1 5.2 0 C232.6 123.8 235.1 121.3 238.4 119.7z" class="style1"/>
		</g>
		<g>
			<path d="M224.8 93.9c-4.4 1.3-8.8 3.3-12.9 5.7c1.8-0.1 3.7-0.4 5.4-1C220.2 97.7 222.6 96 224.8 93.9z" class="style1"/>
		</g>
		<g>
			<path d="M264.9 120.3c-0.9 1.5-1.9 2.9-3 4.1c10-1.8 17.2-4 17.3-4.7c0.4-3.1-2.7-6.9-5.2-9.9 C269.8 111.4 267.2 116.6 264.9 120.3z" class="style1"/>
		</g>
		<g>
			<path d="M272 107.4c0 0-0.1-0.1-0.1-0.1c-0.2-0.3-0.4-0.5-0.6-0.8c-2.8 0-5.7 0-8.5 0c-3.7 0-6.5 0.3-9 3.6 c-0.8 1.1-1.3 2.5-2 3.6c-1.3 2.1-2.8 4.2-4.9 5.6c-3.6 2.4-11.2 2.5-11.3 8.1c7-0.3 14.1-1.1 20.5-2.1 C262.6 121.4 265.4 110.7 272 107.4z" class="style1"/>
		</g>
		<path d="M210.9 111.1c6.2 0 11.9 1 17.4-2.4c4.3-2.7 7.3-7 10.5-10.8c1.4-1.8 2.9-3.4 4.5-4.8 c-1.3-0.3-2.5-0.5-3.8-0.6c-4.4 4.8-7.8 11.2-13.8 14.3c-7.4 3.8-15.9-0.4-23.5 2.8c-1.4 0.6-2.7 1.3-3.8 2.2 c-0.3 0.5-0.6 0.9-0.8 1.4c-1.3 2.1-2.5 4.7-1.9 7.1C198.1 114.1 203.9 111.1 210.9 111.1z" class="style0"/>
		<path d="M249.5 98.4c-4.5 1.8-7.5 5.7-10.6 9.2c-4.1 4.9-7.9 8.8-14.6 9.6c-5.9 0.7-11.5 0.1-16.9 2.9 c-1.7 0.9-0.2 3.5 1.5 2.6c6.4-3.2 13.8-1.2 20.5-3.4c4.5-1.5 7.8-5 10.8-8.5c3.9-4.5 7.4-9.6 13.8-10.3c3.1-0.3 5.4-0.9 7.5-1.9 c-0.8-0.3-1.6-0.6-2.5-0.7c-1.1-0.2-2.2-0.3-3.3-0.5c0 0-0.1 0-0.1 0C253.5 97.5 251.6 97.6 249.5 98.4z" class="style0"/>
		<path d="M247 119.4c2.1-1.4 3.6-3.5 4.9-5.6c0.7-1.2 1.2-2.5 2-3.6c2.4-3.3 5.3-3.6 9-3.6c2.8 0 5.7 0 8.5 0 c-0.9-1.1-1.8-2.2-2.8-3.2c-3.7-0.2-7.4-0.2-10.9 0.3c-3.7 0.5-5.3 3.2-7 6.3c-1.3 2.2-2.4 4.7-4.4 6.4c-2.2 1.9-5.2 2.4-7.8 3.6 c-3.3 1.5-5.8 4.1-5.8 7.8c1 0 2 0 3-0.1C235.7 121.9 243.3 121.8 247 119.4z" class="style0"/>
		<path d="M256.2 125.4c2-0.3 3.9-0.6 5.7-1c1.1-1.3 2.1-2.6 3-4.1c2.3-3.7 4.9-8.9 9.1-10.5c-0.7-0.9-1.4-1.7-2-2.5 C265.4 110.7 262.6 121.4 256.2 125.4z" class="style0"/>
		<path d="M219.5 101c4.3-1.7 7.5-4.9 10.4-8.3c-1.7 0.3-3.5 0.7-5.2 1.2c-2.1 2.1-4.6 3.8-7.5 4.8 c-1.8 0.6-3.6 0.8-5.4 1c-1.6 0.9-3.3 2-4.9 3C211.2 102.9 215.5 102.6 219.5 101z" class="style0"/>
		<path d="M274 109.8c-0.7-0.9-4.5-5.6-5.5-6.6 c-2-2-4.3-3.7-7-4.8c-0.8-0.3-1.6-0.6-2.5-0.7c-1.1-0.2-2.2-0.3-3.3-0.5c-0.4-0.1-0.8-0.1-1.1-0.2c-1.6-0.4-3.1-1.2-4.6-1.8 c-2.3-1-4.6-1.7-6.8-2.2c-1.3-0.3-2.5-0.5-3.8-0.6c-3.2-0.3-6.4-0.2-9.5 0.3c-1.7 0.3-3.5 0.7-5.2 1.2c-4.4 1.3-8.8 3.3-12.9 5.7 c-1.6 0.9-3.3 2-4.9 3c-0.3 0.2-0.5 0.4-0.8 0.5c-3.2 2.2-5.7 5.3-7.8 8.6c-0.3 0.5-0.6 0.9-0.8 1.4c-1.3 2.1-2.5 4.7-1.9 7.1 c0 0.1 0 0.2 0.1 0.3c1.7 0.9 3.6 1.6 5.6 2.3c8.3 2.9 18.3 4.4 26.4 4.7c1.7 0.1 3.4 0.1 5.2 0c1 0 2 0 3-0.1 c7-0.3 14.1-1.1 20.5-2.1c2-0.3 3.9-0.6 5.7-1c10-1.8 17.2-4 17.3-4.7C279.5 116.7 276.5 112.9 274 109.8z" class="style2"/>
	</g>
	<g>
		<g>
			<g>
				<path d="M617.7 32.3c0 5.2 0 10.4 0 15.6c0 3.7-0.4 7.8 0.4 11.4c1.7 7.1 9.1 10.7 14.2 15 c6.7 5.7 11.9 12.2 14.1 20.9c2.1 8.4 1.6 17.1 1.2 25.6c-0.2 3.9 5.8 3.9 6 0c0.8-15.7 0.5-31.6-10.2-44.2 c-5.1-6-12.4-9.5-17.5-15.3c-3.2-3.6-2.2-9.1-2.2-13.6c0-5.2 0-10.4 0-15.6C623.7 28.5 617.7 28.5 617.7 32.3L617.7 32.3z" class="style0"/>
			</g>
		</g>
		<g>
			<g>
				<path d="M621.5 48.1c9.9-1.3 16.4-11.5 14.4-21.1c-0.8-3.8-6.6-2.2-5.8 1.6c1.4 6.7-3.7 12.8-10.2 13.7 C616.1 42.8 617.7 48.6 621.5 48.1L621.5 48.1z" class="style0"/>
			</g>
		</g>
		<g>
			<g>
				<path d="M596.1 49.9c3.8 9 13.7 11.5 22.6 11.6c3.9 0 3.9-6 0-6c-7 0-14.4-1.4-17.4-8.6 C599.8 43.3 594.6 46.4 596.1 49.9L596.1 49.9z" class="style0"/>
			</g>
		</g>
		<g>
			<g>
				<path d="M635.3 76.7c7.8 0.5 10.6-7.2 12.2-13.5c1.7-6.4 1.2-13-4.6-17c-3.2-2.2-6.2 3-3 5.2 c5 3.5 1.8 19.7-4.6 19.3C631.5 70.5 631.5 76.5 635.3 76.7L635.3 76.7z" class="style0"/>
			</g>
		</g>
		<g>
			<g>
				<path d="M615.5 84.1c7.9 7.4 19.4 9.7 29.4 5.5c3.5-1.5 2-7.3-1.6-5.8c-8.1 3.4-17.1 2.1-23.6-3.9 C617 77.3 612.7 81.5 615.5 84.1L615.5 84.1z" class="style0"/>
			</g>
		</g>
	</g>
	<g>
		<g>
			<g>
				<path d="M690.3 108.3c1.4-10.7-6-20.9-3.6-31.4c2.5-11 14.8-16 23.7-20.5c8.4-4.3 16.8-9.7 20.3-18.9 c3.5-9.1-0.3-17.8-6.9-24.3c-2.8-2.7-7 1.5-4.2 4.2c8.6 8.5 7.9 19.1-1.3 27c-7.9 6.8-18.6 9.5-26.8 15.9 c-6.1 4.7-10.7 11.1-11.2 18.9c-0.7 10 5.3 19.1 4 29.2C683.8 112.1 689.8 112.1 690.3 108.3L690.3 108.3z" class="style0"/>
			</g>
		</g>
		<g>
			<g>
				<path d="M727.9 35.1c11.7 3.3 22.5-7.8 18.5-19.4c-1.2-3.6-7-2.1-5.8 1.6c2.5 7.2-3.6 14.1-11.1 12 C725.8 28.3 724.2 34.1 727.9 35.1L727.9 35.1z" class="style0"/>
			</g>
		</g>
		<g>
			<g>
				<path d="M716.1 46.3c-6.5-1.8-9.7-8.5-6.6-14.7c1.7-3.4-3.5-6.5-5.2-3c-4.7 9.6-0.2 20.6 10.2 23.5 C718.2 53.1 719.8 47.3 716.1 46.3L716.1 46.3z" class="style0"/>
			</g>
		</g>
		<g>
			<g>
				<path d="M691.5 63.8c5.1 7 14.8 8.3 21.5 2.9c3-2.4-1.3-6.6-4.2-4.2c-3.5 2.9-9.4 2-12-1.6 C694.4 57.7 689.2 60.7 691.5 63.8L691.5 63.8z" class="style0"/>
			</g>
		</g>
		<g>
			<g>
				<path d="M666 65.6c-2.7 9.4 4.8 18.8 14.7 17.6c3.8-0.5 3.8-6.5 0-6c-6 0.7-10.6-4.1-8.9-10 C672.8 63.5 667 61.9 666 65.6L666 65.6z" class="style0"/>
			</g>
		</g>
	</g>
	<g>
		<g>
			<path d="M665.8 108.3c4.9-2.6 7.8-7.9 11.4-11.9c-2.7-0.3-5.3-0.2-7.8 0.3c-2.4 2.8-5.1 5.5-8.6 6.9 c-3.3 1.3-6.9 1.5-10.5 1.4c-0.2 0.1-0.5 0.3-0.7 0.4c-2.7 1.8-4.7 4.4-6.5 7.1c1-0.7 2-1.4 3.2-1.9 C652.6 107.9 659.7 111.5 665.8 108.3z" class="style1"/>
		</g>
		<g>
			<path d="M676.4 119.1c2.1-1 4.6-1.4 6.5-2.9c1.6-1.4 2.6-3.5 3.7-5.3c1.4-2.5 2.7-4.8 5.8-5.2 c2.9-0.4 6-0.3 9.1-0.2c-1.7-1.7-3.6-3.1-5.8-3.9c-1.7 0.9-3.6 1.3-6.2 1.6c-5.3 0.5-8.2 4.8-11.4 8.5c-2.5 3-5.2 5.8-9 7.1 c-5.5 1.9-11.6 0.2-17 2.9c-1.4 0.7-2.7-1.4-1.3-2.1c4.5-2.3 9.2-1.8 14.1-2.4c5.5-0.7 8.7-3.9 12.1-8c2.5-3 5-6.2 8.8-7.7 c1.7-0.7 3.2-0.7 5.1-0.9c0 0 0.1 0 0.1 0c-0.3-0.1-0.6-0.1-0.9-0.2c-1.3-0.3-2.6-1-3.8-1.5c-1.9-0.8-3.8-1.4-5.6-1.8 c-1.3 1.2-2.5 2.5-3.7 4c-2.6 3.2-5.1 6.8-8.7 9c-4.6 2.9-9.3 2-14.4 2c-5.8 0-10.6 2.5-12.7 7.5c0 0.1 0 0.2 0 0.2 c1.4 0.7 3 1.4 4.6 1.9c6.9 2.4 15.2 3.7 21.9 3.9c1.4 0.1 2.8 0.1 4.3 0C671.5 122.4 673.6 120.4 676.4 119.1z" class="style1"/>
		</g>
		<g>
			<path d="M665 97.6c-3.7 1.1-7.3 2.8-10.7 4.8c1.5-0.1 3-0.3 4.5-0.8C661.2 100.8 663.2 99.4 665 97.6z" class="style1"/>
		</g>
		<g>
			<path d="M698.3 119.6c-0.8 1.2-1.6 2.4-2.5 3.4c8.3-1.5 14.2-3.3 14.3-3.9c0.3-2.6-2.2-5.7-4.3-8.2 C702.4 112.1 700.2 116.5 698.3 119.6z" class="style1"/>
		</g>
		<g>
			<path d="M704.2 108.8C704.2 108.8 704.2 108.8 704.2 108.8c-0.2-0.3-0.4-0.5-0.6-0.7c-2.3 0-4.7 0-7 0 c-3.1 0-5.4 0.2-7.4 3c-0.7 0.9-1.1 2-1.7 3c-1.1 1.8-2.3 3.5-4.1 4.7c-3 2-9.3 2.1-9.4 6.7c5.8-0.2 11.7-0.9 17.1-1.7 C696.4 120.4 698.7 111.6 704.2 108.8z" class="style1"/>
		</g>
		<path d="M653.5 111.9c5.1 0 9.9 0.8 14.4-2c3.6-2.2 6.1-5.8 8.7-9c1.2-1.5 2.4-2.8 3.7-4c-1.1-0.2-2.1-0.4-3.1-0.5 c-3.7 4-6.5 9.3-11.4 11.9c-6.1 3.2-13.2-0.4-19.5 2.3c-1.2 0.5-2.2 1.1-3.2 1.9c-0.2 0.4-0.5 0.8-0.7 1.1 c-1.1 1.8-2.1 3.9-1.6 5.9C642.9 114.4 647.7 111.9 653.5 111.9z" class="style0"/>
		<path d="M685.6 101.3c-3.7 1.5-6.3 4.7-8.8 7.7c-3.4 4-6.6 7.3-12.1 8c-4.9 0.6-9.6 0.1-14.1 2.4 c-1.4 0.7-0.2 2.9 1.3 2.1c5.3-2.7 11.4-1 17-2.9c3.8-1.3 6.5-4.1 9-7.1c3.2-3.8 6.1-8 11.4-8.5c2.5-0.3 4.5-0.7 6.2-1.6 c-0.7-0.3-1.4-0.5-2.1-0.6c-0.9-0.2-1.8-0.2-2.7-0.4c0 0-0.1 0-0.1 0C688.8 100.7 687.3 100.7 685.6 101.3z" class="style0"/>
		<path d="M683.4 118.8c1.8-1.2 3-2.9 4.1-4.7c0.6-1 1-2.1 1.7-3c2-2.8 4.4-3 7.4-3c2.3 0 4.7 0 7 0 c-0.7-0.9-1.5-1.8-2.3-2.7c-3.1-0.1-6.2-0.2-9.1 0.2c-3.1 0.4-4.4 2.7-5.8 5.2c-1 1.8-2 3.9-3.7 5.3c-1.8 1.6-4.3 2-6.5 2.9 c-2.8 1.3-4.8 3.4-4.8 6.5c0.8 0 1.7 0 2.5-0.1C674.1 120.9 680.4 120.8 683.4 118.8z" class="style0"/>
		<path d="M691.1 123.8c1.6-0.3 3.2-0.5 4.7-0.8c0.9-1 1.7-2.2 2.5-3.4c1.9-3.1 4.1-7.4 7.6-8.7 c-0.6-0.7-1.2-1.4-1.6-2C698.7 111.6 696.4 120.4 691.1 123.8z" class="style0"/>
		<path d="M660.7 103.5c3.5-1.4 6.2-4.1 8.6-6.9c-1.5 0.2-2.9 0.6-4.3 1c-1.8 1.7-3.8 3.2-6.2 3.9 c-1.5 0.5-3 0.7-4.5 0.8c-1.4 0.8-2.7 1.6-4.1 2.5C653.8 105.1 657.4 104.9 660.7 103.5z" class="style0"/>
		<path d="M705.9 110.9c-0.6-0.7-3.7-4.6-4.5-5.5 c-1.7-1.7-3.6-3.1-5.8-3.9c-0.7-0.3-1.4-0.5-2.1-0.6c-0.9-0.2-1.8-0.2-2.7-0.4c-0.3-0.1-0.6-0.1-0.9-0.2c-1.3-0.3-2.6-1-3.8-1.5 c-1.9-0.8-3.8-1.4-5.6-1.8c-1.1-0.2-2.1-0.4-3.1-0.5c-2.7-0.3-5.3-0.2-7.8 0.3c-1.5 0.2-2.9 0.6-4.3 1c-3.7 1.1-7.3 2.8-10.7 4.8 c-1.4 0.8-2.7 1.6-4.1 2.5c-0.2 0.1-0.5 0.3-0.7 0.4c-2.7 1.8-4.7 4.4-6.5 7.1c-0.2 0.4-0.5 0.8-0.7 1.1c-1.1 1.8-2.1 3.9-1.6 5.9 c0 0.1 0 0.2 0 0.2c1.4 0.7 3 1.4 4.6 1.9c6.9 2.4 15.2 3.7 21.9 3.9c1.4 0.1 2.8 0.1 4.3 0c0.8 0 1.7 0 2.5-0.1 c5.8-0.2 11.7-0.9 17.1-1.7c1.6-0.3 3.2-0.5 4.7-0.8c8.3-1.5 14.2-3.3 14.3-3.9C710.5 116.5 708 113.4 705.9 110.9z" class="style2"/>
	</g>
	<g>
		<path d="M102.9 123.1c-12.6-15-20.7-33.8-23-53.2c-0.7-6-0.8-12.2 1.5-17.7s7.7-10.1 13.7-9.9 c0.8 0 1.7 0.2 2.4 0.7c1.1 0.9 1.2 2.4 1.2 3.8c0.1 18.5-8.2 37-4.1 55.1c2 8.7 6.8 16.7 13.7 22.4" class="style1"/>
		<g>
			<path d="M104 122.1c-9.5-11.5-16.4-24.9-20.1-39.4c-2-7.9-3.9-16.9-2.4-25c0.7-3.8 2.2-7.4 5-10.2 c3-3 9.8-6.5 10.8 0.1c0.6 3.9-0.6 9.2-1.2 13c-0.5 3.6-1.2 7.1-1.8 10.7c-1.2 6.9-2.3 13.8-2.2 20.8 c0.3 12.9 5.5 24.6 15.2 33.1c1.4 1.3 3.6-0.8 2.1-2.1c-7-6.2-11.9-14.3-13.6-23.5C94 90 95.8 80 97.5 70.4 c1.4-7.7 4-17.2 2.7-25.1c-0.9-5.5-6.7-5.2-10.9-3.4c-14.5 6.3-11.9 25.9-9.1 38.3c3.6 16.2 11.1 31.2 21.7 44 C103.1 125.7 105.2 123.6 104 122.1L104 122.1z" class="style0"/>
		</g>
	</g>
	<g>
		<path d="M116.6 124.5c-2.3-10.8-3.5-21.8-3.6-32.8c-0.1-4.6 0.1-9.3 1.7-13.6c1.7-4.3 5.1-8.2 9.6-9.2 c1-0.2 2-0.3 2.9 0c1.7 0.5 3 1.9 3.7 3.5c2.6 5.6-0.5 12-2.7 17.7c-4.5 11.8-5.2 25.1-1.9 37.3" class="style1"/>
		<g>
			<path d="M118.1 124.1c-2.2-10.7-3.5-21.5-3.6-32.4c-0.1-4.7 0-9.8 2.1-14.2c2.2-4.7 10.9-11.8 13.5-3.2 c1.5 5.1-1.6 10.7-3.3 15.4c-1.5 4-2.6 8-3.2 12.2c-1.4 8.7-0.8 17.4 1.3 25.9c0.5 1.9 3.4 1.1 2.9-0.8 c-3.5-13.7-1.8-26.6 3.1-39.7c2.3-6 5.1-20.9-5.9-20c-8.9 0.7-12.8 10.7-13.4 18.3c-1.1 13 1 26.6 3.5 39.3 C115.6 126.8 118.5 126 118.1 124.1L118.1 124.1z" class="style0"/>
		</g>
	</g>
	<g>
		<path d="M145.7 121.2c-3.8-8-1.2-17.4 0.9-26s3.1-18.8-2.9-25.4c-1.6-1.8-3.7-3.2-5.3-5c-4-4.8-3.9-12.6 0.4-17.2 c4.2-4.6 12-5.4 17.1-1.7c4 2.9 6.1 7.9 7.1 12.7c1.6 7.4 1.4 15.2-0.6 22.5c-1.8 6.5-4.9 12.5-6.7 19c-2.1 7.8-2.3 15.9-2.5 23.9 " class="style1"/>
		<g>
			<path d="M147.2 120.8c-5.6-13.4 3.8-26.9 2.4-40.6c-0.6-5.5-2.8-9.8-6.9-13.5c-2.9-2.6-5.3-5.2-5.6-9.3 c-0.3-4.2 1.5-8.4 5.1-10.6c8.3-5.1 16.2 1.3 18.7 9.3c2.4 7.6 2.3 16.1 0.4 23.7c-1.9 7.4-5.6 14.2-7.3 21.6 c-1.8 7.4-1.9 15-2.1 22.5c0 1.9 3 1.9 3 0c0.2-10.6 1-20.5 4.7-30.5c3.3-8.6 6.3-16.9 6-26.3c-0.4-12-6.7-29.7-22.2-24.3 c-5.2 1.8-8.7 6.4-9.3 11.8c-0.8 7.8 4 10.9 8.5 16.1c6.6 7.5 3.7 18.5 1.7 27.2c-1.8 7.9-3.3 15.9-0.1 23.6 C145 123.3 147.9 122.5 147.2 120.8L147.2 120.8z" class="style0"/>
		</g>
	</g>
	<g>
		<path d="M76.8 121.1c1.8-3.9 1.1-8.6-0.8-12.5s-4.8-7.2-7.4-10.6C58 84.2 52 67.6 46.1 51.3c-1-2.9-2.1-6-1.1-8.9 c1.5-4.3 6.6-6 11-7c1.2-0.3 2.6-0.5 3.4 0.5c0.4 0.5 0.5 1.3 0.6 2c0.8 12.4-1.6 25.3 2.1 37.1c2.4 7.7 7.3 14.3 11.1 21.4 c5.2 9.8 8.4 20.6 9.4 31.6" class="style1"/>
		<g>
			<path d="M78.3 121.5c2.4-6.3 0.2-12.5-3.5-17.8c-4.5-6.5-9.5-12.5-13.3-19.5c-4.1-7.5-7.3-15.4-10.4-23.4 c-1.4-3.7-3.2-7.7-4.2-11.5c-1-3.8-1.1-7.1 2.2-9.5c1.5-1.1 3.9-2.2 5.8-2.4c2.8-0.3 2.9 0.2 3.5 2.4c0.6 2 0.1 5.1 0.1 7.1 c-0.1 4.2-0.3 8.3-0.2 12.5c0.1 7.4 1.2 14.5 4.3 21.2c3.4 7.4 8.2 13.9 11.5 21.3c3.8 8.3 6 17.1 6.9 26.2c0.2 1.9 3.2 1.9 3 0 c-1.4-14.2-6.2-26.9-13.5-39.1c-4.2-7.1-7.8-14.2-8.8-22.5c-0.9-7.7-0.1-15.4-0.2-23.2c0-3.5 0.8-8.9-3.8-9.4 c-4-0.4-10.2 2.3-12.7 5.5C41.2 44 44 50 45.8 55c2.4 6.7 4.9 13.3 7.8 19.8c3.3 7.4 7 14.6 11.6 21.2c5.1 7.3 13.9 15 10.2 24.8 C74.7 122.5 77.6 123.3 78.3 121.5L78.3 121.5z" class="style0"/>
		</g>
	</g>
	<g>
		<path d="M50.9 126.1c1.6-5.5 3.3-11.2 2.5-16.9c-1.7-11.9-13.2-19.7-19.2-30.1c-1.8-3.2-3.2-6.7-3.9-10.3 c-0.6-2.7-0.7-5.8 1-7.9c2-2.4 6-2.5 8.7-0.9c2.7 1.7 4.3 4.7 5.1 7.7c1.9 6.5 1.2 13.5 3.6 19.8c1.2 3.1 3.1 5.9 4.7 8.9 c4.8 8.8 6.9 19.1 5.8 29.2" class="style1"/>
		<g>
			<path d="M52.3 126.5c3.3-11 3.9-20.5-3-30.2c-6.4-9.1-15.5-16.4-17.6-27.9c-0.6-3.1-0.6-4.4 2.1-6.4 c1.5-2 3.3-2.2 5.4-0.7c0.6 0.5 1.2 1 1.7 1.5c2.4 2.7 3.2 6.6 3.7 10.1c0.8 5.2 0.8 10.5 2.8 15.4c2.4 6.2 6.5 11.4 8.5 17.8 c1.9 6.3 2.5 12.9 1.9 19.5c-0.2 1.9 2.8 1.9 3 0c0.7-7.4-0.1-14.8-2.5-21.9C55.9 96.9 51 91.1 49.2 84c-2-7.7-1-29.3-14.8-26.4 c-12.6 2.6-2.3 21.6 1.8 27.1c3.8 5.1 8.4 9.5 11.8 14.9c5.5 8.5 4.2 16.8 1.5 26.1C48.9 127.6 51.8 128.4 52.3 126.5L52.3 126.5 z" class="style0"/>
		</g>
	</g>
	<g>
		<path d="M10.1 124c2.9-27.1-8.6-55.7 1.4-81.1c1.8-4.5 4.3-8.8 8.2-11.6c0.5-0.4 1.1-0.7 1.7-0.6 c0.9 0.1 1.4 1.1 1.8 1.9c2.5 6.6 1.4 14-0.1 20.9c-2.6 11.7-6.3 23.2-8 35.1s-1.2 24.5 4.3 35.2" class="style1"/>
		<g>
			<path d="M11.6 124c1.5-15.3-1.2-30.4-2.3-45.6c-0.6-7.8-0.8-15.8 0.5-23.6c0.7-3.9 1.7-7.8 3.2-11.5 c0.7-1.9 1.6-3.7 2.7-5.4c1.3-2.1 2.7-4.9 5.2-3.9c3.7 1.5 2.3 10.5 1.7 13.8c-0.6 3.9-1.6 7.8-2.5 11.7c-2 8-4.2 15.9-5.7 24 c-2.6 13.8-2.6 28.2 3.7 41c0.9 1.7 3.4 0.2 2.6-1.5c-9.1-18.6-3.7-39.2 1.2-58.1c2.1-8.2 4.9-16.9 4.3-25.5 c-0.2-3.3-1.1-11.8-6.3-9.9c-5.8 2.1-9.2 11-10.9 16.2c-2.5 7.7-3.2 15.9-3 24c0.3 18.1 4.5 36.1 2.7 54.3 C8.5 125.9 11.5 125.9 11.6 124L11.6 124z" class="style0"/>
		</g>
	</g>
	<g>
		<path d="M282.6 124.5c-2.3-10.8-3.5-21.8-3.6-32.8c-0.1-4.6 0.1-9.3 1.7-13.6s5.1-8.2 9.6-9.2c1-0.2 2-0.3 2.9 0 c1.7 0.5 3 1.9 3.7 3.5c2.6 5.6-0.5 12-2.7 17.7c-4.5 11.8-5.2 25.1-1.9 37.3" class="style1"/>
		<g>
			<path d="M284.1 124.1c-2.2-10.7-3.5-21.5-3.6-32.4c-0.1-4.7 0-9.8 2.1-14.2c2.2-4.7 10.9-11.8 13.5-3.2 c1.5 5.1-1.6 10.7-3.3 15.4c-1.5 4-2.6 8-3.2 12.2c-1.4 8.7-0.8 17.4 1.3 25.9c0.5 1.9 3.4 1.1 2.9-0.8 c-3.5-13.7-1.8-26.6 3.1-39.7c2.3-6 5.1-20.9-5.9-20c-8.9 0.7-12.8 10.7-13.4 18.3c-1.1 13 1 26.6 3.5 39.3 C281.6 126.8 284.5 126 284.1 124.1L284.1 124.1z" class="style0"/>
		</g>
	</g>
	<g>
		<path d="M311.7 121.2c-3.8-8-1.2-17.4 0.9-26c2-8.6 3.1-18.8-2.9-25.4c-1.6-1.8-3.7-3.2-5.3-5 c-4-4.8-3.9-12.6 0.4-17.2s12-5.4 17.1-1.7c4 2.9 6.1 7.9 7.1 12.7c1.6 7.4 1.4 15.2-0.6 22.5c-1.8 6.5-4.9 12.5-6.7 19 c-2.1 7.8-2.3 15.9-2.5 23.9" class="style1"/>
		<g>
			<path d="M313.2 120.8c-5.6-13.4 3.8-26.9 2.4-40.6c-0.6-5.5-2.8-9.8-6.9-13.5c-2.9-2.6-5.3-5.2-5.6-9.3 c-0.3-4.2 1.5-8.4 5.1-10.6c8.3-5.1 16.2 1.3 18.7 9.3c2.4 7.6 2.3 16.1 0.4 23.7c-1.9 7.4-5.6 14.2-7.3 21.6 c-1.8 7.4-1.9 15-2.1 22.5c0 1.9 3 1.9 3 0c0.2-10.6 1-20.5 4.7-30.5c3.3-8.6 6.3-16.9 6-26.3c-0.4-12-6.7-29.7-22.2-24.3 c-5.2 1.8-8.7 6.4-9.3 11.8c-0.8 7.8 4 10.9 8.5 16.1c6.6 7.5 3.7 18.5 1.7 27.2c-1.8 7.9-3.3 15.9-0.1 23.6 C311 123.3 313.9 122.5 313.2 120.8L313.2 120.8z" class="style0"/>
		</g>
	</g>
	<g>
		<path d="M176.1 124c2.9-27.1-8.6-55.7 1.4-81.1c1.8-4.5 4.3-8.8 8.2-11.6c0.5-0.4 1.1-0.7 1.7-0.6 c0.9 0.1 1.4 1.1 1.8 1.9c2.5 6.6 1.4 14-0.1 20.9c-2.6 11.7-6.3 23.2-8 35.1s-1.2 24.5 4.3 35.2" class="style1"/>
		<g>
			<path d="M177.6 124c1.5-15.3-1.2-30.4-2.3-45.6c-0.6-7.8-0.8-15.8 0.5-23.6c0.7-3.9 1.7-7.8 3.2-11.5 c0.7-1.9 1.6-3.7 2.7-5.4c1.3-2.1 2.7-4.9 5.2-3.9c3.7 1.5 2.3 10.5 1.7 13.8c-0.6 3.9-1.6 7.8-2.5 11.7c-2 8-4.2 15.9-5.7 24 c-2.6 13.8-2.6 28.2 3.7 41c0.9 1.7 3.4 0.2 2.6-1.5c-9.1-18.6-3.7-39.2 1.2-58.1c2.1-8.2 4.9-16.9 4.3-25.5 c-0.2-3.3-1.1-11.8-6.3-9.9c-5.8 2.1-9.2 11-10.9 16.2c-2.5 7.7-3.2 15.9-3 24c0.3 18.1 4.5 36.1 2.7 54.3 C174.5 125.9 177.5 125.9 177.6 124L177.6 124z" class="style0"/>
		</g>
	</g>
	<g>
		<path d="M434.9 123.1c-12.6-15-20.7-33.8-23-53.2c-0.7-6-0.8-12.2 1.5-17.7c2.3-5.5 7.7-10.1 13.7-9.9 c0.8 0 1.7 0.2 2.4 0.7c1.1 0.9 1.2 2.4 1.2 3.8c0.1 18.5-8.2 37-4.1 55.1c2 8.7 6.8 16.7 13.7 22.4" class="style1"/>
		<g>
			<path d="M436 122.1c-9.5-11.5-16.4-24.9-20.1-39.4c-2-7.9-3.9-16.9-2.4-25c0.7-3.8 2.2-7.4 5-10.2 c3-3 9.8-6.5 10.8 0.1c0.6 3.9-0.6 9.2-1.2 13c-0.5 3.6-1.2 7.1-1.8 10.7c-1.2 6.9-2.3 13.8-2.2 20.8 c0.3 12.9 5.5 24.6 15.2 33.1c1.4 1.3 3.6-0.8 2.1-2.1c-7-6.2-11.9-14.3-13.6-23.5c-1.8-9.7 0-19.7 1.7-29.3 c1.4-7.7 4-17.2 2.7-25.1c-0.9-5.5-6.7-5.2-10.9-3.4c-14.5 6.3-11.9 25.9-9.1 38.3c3.6 16.2 11.1 31.2 21.7 44 C435.1 125.7 437.2 123.6 436 122.1L436 122.1z" class="style0"/>
		</g>
	</g>
	<g>
		<path d="M454.6 129.5c-2.3-10.8-3.5-21.8-3.6-32.8c-0.1-4.6 0.1-9.3 1.7-13.6s5.1-8.2 9.6-9.2c1-0.2 2-0.3 2.9 0 c1.7 0.5 3 1.9 3.7 3.5c2.6 5.6-0.5 12-2.7 17.7c-4.5 11.8-5.2 25.1-1.9 37.3" class="style1"/>
		<g>
			<path d="M456.1 129.1c-2.2-10.7-3.5-21.5-3.6-32.4c-0.1-4.7 0-9.8 2.1-14.2c2.2-4.7 10.9-11.8 13.5-3.2 c1.5 5.1-1.6 10.7-3.3 15.4c-1.5 4-2.6 8-3.2 12.2c-1.4 8.7-0.8 17.4 1.3 25.9c0.5 1.9 3.4 1.1 2.9-0.8 c-3.5-13.7-1.8-26.6 3.1-39.7c2.3-6 5.1-20.9-5.9-20c-8.9 0.7-12.8 10.7-13.4 18.3c-1.1 13 1 26.6 3.5 39.3 C453.6 131.8 456.5 131 456.1 129.1L456.1 129.1z" class="style0"/>
		</g>
	</g>
	<g>
		<path d="M477.7 121.2c-3.8-8-1.2-17.4 0.9-26c2-8.6 3.1-18.8-2.9-25.4c-1.6-1.8-3.7-3.2-5.3-5 c-4-4.8-3.9-12.6 0.4-17.2s12-5.4 17.1-1.7c4 2.9 6.1 7.9 7.1 12.7c1.6 7.4 1.4 15.2-0.6 22.5c-1.8 6.5-4.9 12.5-6.7 19 c-2.1 7.8-2.3 15.9-2.5 23.9" class="style1"/>
		<g>
			<path d="M479.2 120.8c-5.6-13.4 3.8-26.9 2.4-40.6c-0.6-5.5-2.8-9.8-6.9-13.5c-2.9-2.6-5.3-5.2-5.6-9.3 c-0.3-4.2 1.5-8.4 5.1-10.6c8.3-5.1 16.2 1.3 18.7 9.3c2.4 7.6 2.3 16.1 0.4 23.7c-1.9 7.4-5.6 14.2-7.3 21.6 c-1.8 7.4-1.9 15-2.1 22.5c0 1.9 3 1.9 3 0c0.2-10.6 1-20.5 4.7-30.5c3.3-8.6 6.3-16.9 6-26.3c-0.4-12-6.7-29.7-22.2-24.3 c-5.2 1.8-8.7 6.4-9.3 11.8c-0.8 7.8 4 10.9 8.5 16.1c6.6 7.5 3.7 18.5 1.7 27.2c-1.8 7.9-3.3 15.9-0.1 23.6 C477 123.3 479.9 122.5 479.2 120.8L479.2 120.8z" class="style0"/>
		</g>
	</g>
	<g>
		<path d="M408.8 121.1c1.8-3.9 1.1-8.6-0.8-12.5s-4.8-7.2-7.4-10.6C390 84.2 384 67.6 378.1 51.3 c-1-2.9-2.1-6-1.1-8.9c1.5-4.3 6.6-6 11-7c1.2-0.3 2.6-0.5 3.4 0.5c0.4 0.5 0.5 1.3 0.6 2c0.8 12.4-1.6 25.3 2.1 37.1 c2.4 7.7 7.3 14.3 11.1 21.4c5.2 9.8 8.4 20.6 9.4 31.6" class="style1"/>
		<g>
			<path d="M410.3 121.5c2.4-6.3 0.2-12.5-3.5-17.8c-4.5-6.5-9.5-12.5-13.3-19.5c-4.1-7.5-7.3-15.4-10.4-23.4 c-1.4-3.7-3.2-7.7-4.2-11.5c-1-3.8-1.1-7.1 2.2-9.5c1.5-1.1 3.9-2.2 5.8-2.4c2.8-0.3 2.9 0.2 3.5 2.4c0.6 2 0.1 5.1 0.1 7.1 c-0.1 4.2-0.3 8.3-0.2 12.5c0.1 7.4 1.2 14.5 4.3 21.2c3.4 7.4 8.2 13.9 11.5 21.3c3.8 8.3 6 17.1 6.9 26.2c0.2 1.9 3.2 1.9 3 0 c-1.4-14.2-6.2-26.9-13.5-39.1c-4.2-7.1-7.8-14.2-8.8-22.5c-0.9-7.7-0.1-15.4-0.2-23.2c0-3.5 0.8-8.9-3.8-9.4 c-4-0.4-10.2 2.3-12.7 5.5C373.2 44 376 50 377.8 55c2.4 6.7 4.9 13.3 7.8 19.8c3.3 7.4 7 14.6 11.6 21.2 c5.1 7.3 13.9 15 10.2 24.8C406.7 122.5 409.6 123.3 410.3 121.5L410.3 121.5z" class="style0"/>
		</g>
	</g>
	<g>
		<path d="M382.9 126.1c1.6-5.5 3.3-11.2 2.5-16.9c-1.7-11.9-13.2-19.7-19.2-30.1c-1.8-3.2-3.2-6.7-3.9-10.3 c-0.6-2.7-0.7-5.8 1-7.9c2-2.4 6-2.5 8.7-0.9c2.7 1.7 4.3 4.7 5.1 7.7c1.9 6.5 1.2 13.5 3.6 19.8c1.2 3.1 3.1 5.9 4.7 8.9 c4.8 8.8 6.9 19.1 5.8 29.2" class="style1"/>
		<g>
			<path d="M384.3 126.5c3.3-11 3.9-20.5-3-30.2c-6.4-9.1-15.5-16.4-17.6-27.9c-0.6-3.1-0.6-4.4 2.1-6.4 c1.5-2 3.3-2.2 5.4-0.7c0.6 0.5 1.2 1 1.7 1.5c2.4 2.7 3.2 6.6 3.7 10.1c0.8 5.2 0.8 10.5 2.8 15.4c2.4 6.2 6.5 11.4 8.5 17.8 c1.9 6.3 2.5 12.9 1.9 19.5c-0.2 1.9 2.8 1.9 3 0c0.7-7.4-0.1-14.8-2.5-21.9c-2.4-6.9-7.3-12.7-9.1-19.8c-2-7.7-1-29.3-14.8-26.4 c-12.6 2.6-2.3 21.6 1.8 27.1c3.8 5.1 8.4 9.5 11.8 14.9c5.5 8.5 4.2 16.8 1.5 26.1C380.9 127.6 383.8 128.4 384.3 126.5 L384.3 126.5z" class="style0"/>
		</g>
	</g>
	<g>
		<path d="M342.1 124c2.9-27.1-8.6-55.7 1.4-81.1c1.8-4.5 4.3-8.8 8.2-11.6c0.5-0.4 1.1-0.7 1.7-0.6 c0.9 0.1 1.4 1.1 1.8 1.9c2.5 6.6 1.4 14-0.1 20.9c-2.6 11.7-6.3 23.2-8 35.1c-1.7 11.9-1.2 24.5 4.3 35.2" class="style1"/>
		<g>
			<path d="M343.6 124c1.5-15.3-1.2-30.4-2.3-45.6c-0.6-7.8-0.8-15.8 0.5-23.6c0.7-3.9 1.7-7.8 3.2-11.5 c0.7-1.9 1.6-3.7 2.7-5.4c1.3-2.1 2.7-4.9 5.2-3.9c3.7 1.5 2.3 10.5 1.7 13.8c-0.6 3.9-1.6 7.8-2.5 11.7c-2 8-4.2 15.9-5.7 24 c-2.6 13.8-2.6 28.2 3.7 41c0.9 1.7 3.4 0.2 2.6-1.5c-9.1-18.6-3.7-39.2 1.2-58.1c2.1-8.2 4.9-16.9 4.3-25.5 c-0.2-3.3-1.1-11.8-6.3-9.9c-5.8 2.1-9.2 11-10.9 16.2c-2.5 7.7-3.2 15.9-3 24c0.3 18.1 4.5 36.1 2.7 54.3 C340.5 125.9 343.5 125.9 343.6 124L343.6 124z" class="style0"/>
		</g>
	</g>
	<g>
		<path d="M548.3 121.1c-1.8-3.9-1.1-8.6 0.8-12.5s4.8-7.2 7.4-10.6c10.5-13.8 16.6-30.3 22.5-46.6 c1-2.9 2.1-6 1.1-8.9c-1.5-4.3-6.6-6-11-7c-1.2-0.3-2.6-0.5-3.4 0.5c-0.4 0.5-0.5 1.3-0.6 2c-0.8 12.4 1.6 25.3-2.1 37.1 c-2.4 7.7-7.3 14.3-11.1 21.4c-5.2 9.8-8.4 20.6-9.4 31.6" class="style1"/>
		<g>
			<path d="M549.7 120.7c-3.3-8.6 3.3-15.6 8.1-22c4.4-5.7 8-12 11.1-18.4c3-6.1 5.5-12.4 7.9-18.7 c2.1-5.5 6.7-13.4 4.7-19.5c-1.8-5.3-16.2-13.1-17.8-4.7c-1.3 7 0.1 14.9 0 22c-0.1 8.8-1.9 16.6-6.2 24.3 c-3.7 6.7-7.9 13.1-10.7 20.2c-3.1 7.7-4.9 15.8-5.8 24.1c-0.2 1.9 2.8 1.9 3 0c0.9-9 3.1-17.9 6.9-26.2 c3.3-7.4 8.2-13.9 11.5-21.3c3.1-6.7 4.1-13.9 4.3-21.2c0.1-4.2-0.1-8.3-0.2-12.5c0-2.1 0-4.2 0-6.3c0.1-2.9 0.5-3.6 3.6-3.3 c1.6 0.2 3.5 1 4.9 1.8c4.1 2.3 4.3 5.8 3.2 10.2c-1 3.9-2.8 7.8-4.2 11.5c-3 8-6.3 15.9-10.4 23.4c-3.8 7-8.8 13-13.3 19.5 c-3.7 5.3-5.9 11.5-3.5 17.8C547.5 123.3 550.4 122.5 549.7 120.7L549.7 120.7z" class="style0"/>
		</g>
	</g>
	<g>
		<path d="M532.5 129.1c-1.6-5.5-3.3-11.2-2.5-16.9c1.7-11.9 13.2-19.7 19.2-30.1c1.8-3.2 3.2-6.7 3.9-10.3 c0.6-2.7 0.7-5.8-1-7.9c-2-2.4-6-2.5-8.7-0.9c-2.7 1.7-4.3 4.7-5.1 7.7c-1.9 6.5-1.2 13.5-3.6 19.8c-1.2 3.1-3.1 5.9-4.7 8.9 c-4.8 8.8-6.9 19.1-5.8 29.2" class="style1"/>
		<g>
			<path d="M534 128.7c-2.7-9.3-4-17.6 1.5-26.1c3.4-5.4 8-9.8 11.8-14.9c4.1-5.5 14.5-24.7 1.8-27.1 c-13.9-2.7-12.9 18.6-14.8 26.4c-1.8 7.1-6.7 12.9-9.1 19.8c-2.4 7-3.2 14.5-2.5 21.9c0.2 1.9 3.2 1.9 3 0 c-0.6-6.6-0.1-13.1 1.9-19.5c1.9-6.2 5.7-11.2 8.2-17c2-4.7 2.2-9.7 2.9-14.7c0.5-3.6 1-7.6 3.2-10.6c1.2-1.6 3.3-3.5 5.5-3.4 c5.2 0.3 4.9 4.8 4.4 8c-2.1 11.2-10.8 18.5-17.2 27.3c-7.2 9.9-6.8 19.4-3.4 30.8C531.6 131.4 534.5 130.6 534 128.7L534 128.7z " class="style0"/>
		</g>
	</g>
	<g>
		<path d="M508.1 124c2.9-27.1-8.6-55.7 1.4-81.1c1.8-4.5 4.3-8.8 8.2-11.6c0.5-0.4 1.1-0.7 1.7-0.6 c0.9 0.1 1.4 1.1 1.8 1.9c2.5 6.6 1.4 14-0.1 20.9c-2.6 11.7-6.3 23.2-8 35.1c-1.7 11.9-1.2 24.5 4.3 35.2" class="style1"/>
		<g>
			<path d="M509.6 124c1.5-15.3-1.2-30.4-2.3-45.6c-0.6-7.8-0.8-15.8 0.5-23.6c0.7-3.9 1.7-7.8 3.2-11.5 c0.7-1.9 1.6-3.7 2.7-5.4c1.3-2.1 2.7-4.9 5.2-3.9c3.7 1.5 2.3 10.5 1.7 13.8c-0.6 3.9-1.6 7.8-2.5 11.7c-2 8-4.2 15.9-5.7 24 c-2.6 13.8-2.6 28.2 3.7 41c0.9 1.7 3.4 0.2 2.6-1.5c-9.1-18.6-3.7-39.2 1.2-58.1c2.1-8.2 4.9-16.9 4.3-25.5 c-0.2-3.3-1.1-11.8-6.3-9.9c-5.8 2.1-9.2 11-10.9 16.2c-2.5 7.7-3.2 15.9-3 24c0.3 18.1 4.5 36.1 2.7 54.3 C506.5 125.9 509.5 125.9 509.6 124L509.6 124z" class="style0"/>
		</g>
	</g>
	<g>
		<path d="M766.9 123.1c-12.6-15-20.7-33.8-23-53.2c-0.7-6-0.8-12.2 1.5-17.7c2.3-5.5 7.7-10.1 13.7-9.9 c0.8 0 1.7 0.2 2.4 0.7c1.1 0.9 1.2 2.4 1.2 3.8c0.1 18.5-8.2 37-4.1 55.1c2 8.7 6.8 16.7 13.7 22.4" class="style1"/>
		<g>
			<path d="M768 122.1c-9.5-11.5-16.4-24.9-20.1-39.4c-2-7.9-3.9-16.9-2.4-25c0.7-3.8 2.2-7.4 5-10.2 c3-3 9.8-6.5 10.8 0.1c0.6 3.9-0.6 9.2-1.2 13c-0.5 3.6-1.2 7.1-1.8 10.7c-1.2 6.9-2.3 13.8-2.2 20.8 c0.3 12.9 5.5 24.6 15.2 33.1c1.4 1.3 3.6-0.8 2.1-2.1c-7-6.2-11.9-14.3-13.6-23.5c-1.8-9.7 0-19.7 1.7-29.3 c1.4-7.7 4-17.2 2.7-25.1c-0.9-5.5-6.7-5.2-10.9-3.4c-14.5 6.3-11.9 25.9-9.1 38.3c3.6 16.2 11.1 31.2 21.7 44 C767.1 125.7 769.2 123.6 768 122.1L768 122.1z" class="style0"/>
		</g>
	</g>
	<g>
		<path d="M790.6 124.5c-2.3-10.8-3.5-21.8-3.6-32.8c-0.1-4.6 0.1-9.3 1.7-13.6c1.7-4.3 5.1-8.2 9.6-9.2 c1-0.2 2-0.3 2.9 0c1.7 0.5 3 1.9 3.7 3.5c2.6 5.6-0.5 12-2.7 17.7c-4.5 11.8-5.2 25.1-1.9 37.3" class="style1"/>
		<g>
			<path d="M792.1 124.1c-2.2-10.7-3.5-21.5-3.6-32.4c-0.1-4.7 0-9.8 2.1-14.2c2.2-4.7 10.9-11.8 13.5-3.2 c1.5 5.1-1.6 10.7-3.3 15.4c-1.5 4-2.6 8-3.2 12.2c-1.4 8.7-0.8 17.4 1.3 25.9c0.5 1.9 3.4 1.1 2.9-0.8 c-3.5-13.7-1.8-26.6 3.1-39.7c2.3-6 5.1-20.9-5.9-20c-8.9 0.7-12.8 10.7-13.4 18.3c-1.1 13 1 26.6 3.5 39.3 C789.6 126.8 792.5 126 792.1 124.1L792.1 124.1z" class="style0"/>
		</g>
	</g>
	<g>
		<path d="M819.7 121.2c-3.8-8-1.2-17.4 0.9-26s3.1-18.8-2.9-25.4c-1.6-1.8-3.7-3.2-5.3-5c-4-4.8-3.9-12.6 0.4-17.2 c4.2-4.6 12-5.4 17.1-1.7c4 2.9 6.1 7.9 7.1 12.7c1.6 7.4 1.4 15.2-0.6 22.5c-1.8 6.5-4.9 12.5-6.7 19c-2.1 7.8-2.3 15.9-2.5 23.9 " class="style1"/>
		<g>
			<path d="M821.2 120.8c-5.6-13.4 3.8-26.9 2.4-40.6c-0.6-5.5-2.8-9.8-6.9-13.5c-2.9-2.6-5.3-5.2-5.6-9.3 c-0.3-4.2 1.5-8.4 5.1-10.6c8.3-5.1 16.2 1.3 18.7 9.3c2.4 7.6 2.3 16.1 0.4 23.7c-1.9 7.4-5.6 14.2-7.3 21.6 c-1.8 7.4-1.9 15-2.1 22.5c0 1.9 3 1.9 3 0c0.2-10.6 1-20.5 4.7-30.5c3.3-8.6 6.3-16.9 6-26.3c-0.4-12-6.7-29.7-22.2-24.3 c-5.2 1.8-8.7 6.4-9.3 11.8c-0.8 7.8 4 10.9 8.5 16.1c6.6 7.5 3.7 18.5 1.7 27.2c-1.8 7.9-3.3 15.9-0.1 23.6 C819 123.3 821.9 122.5 821.2 120.8L821.2 120.8z" class="style0"/>
		</g>
	</g>
	<g>
		<path d="M955.9 123.1c-12.6-15-20.7-33.8-23-53.2c-0.7-6-0.8-12.2 1.5-17.7c2.3-5.5 7.7-10.1 13.7-9.9 c0.8 0 1.7 0.2 2.4 0.7c1.1 0.9 1.2 2.4 1.2 3.8c0.1 18.5-8.2 37-4.1 55.1c2 8.7 6.8 16.7 13.7 22.4" class="style1"/>
		<g>
			<path d="M957 122.1c-9.5-11.5-16.4-24.9-20.1-39.4c-2-7.9-3.9-16.9-2.4-25c0.7-3.8 2.2-7.4 5-10.2 c3-3 9.8-6.5 10.8 0.1c0.6 3.9-0.6 9.2-1.2 13c-0.5 3.6-1.2 7.1-1.8 10.7c-1.2 6.9-2.3 13.8-2.2 20.8 c0.3 12.9 5.5 24.6 15.2 33.1c1.4 1.3 3.6-0.8 2.1-2.1c-7-6.2-11.9-14.3-13.6-23.5c-1.8-9.7 0-19.7 1.7-29.3 c1.4-7.7 4-17.2 2.7-25.1c-0.9-5.5-6.7-5.2-10.9-3.4c-14.5 6.3-11.9 25.9-9.1 38.3c3.6 16.2 11.1 31.2 21.7 44 C956.1 125.7 958.2 123.6 957 122.1L957 122.1z" class="style0"/>
		</g>
	</g>
	<g>
		<path d="M969.6 124.5c-2.3-10.8-3.5-21.8-3.6-32.8c-0.1-4.6 0.1-9.3 1.7-13.6c1.7-4.3 5.1-8.2 9.6-9.2 c1-0.2 2-0.3 2.9 0c1.7 0.5 3 1.9 3.7 3.5c2.6 5.6-0.5 12-2.7 17.7c-4.5 11.8-5.2 25.1-1.9 37.3" class="style1"/>
		<g>
			<path d="M971.1 124.1c-2.2-10.7-3.5-21.5-3.6-32.4c-0.1-4.7 0-9.8 2.1-14.2c2.2-4.7 10.9-11.8 13.5-3.2 c1.5 5.1-1.6 10.7-3.3 15.4c-1.5 4-2.6 8-3.2 12.2c-1.4 8.7-0.8 17.4 1.3 25.9c0.5 1.9 3.4 1.1 2.9-0.8 c-3.5-13.7-1.8-26.6 3.1-39.7c2.3-6 5.1-20.9-5.9-20c-8.9 0.7-12.8 10.7-13.4 18.3c-1.1 13 1 26.6 3.5 39.3 C968.6 126.8 971.5 126 971.1 124.1L971.1 124.1z" class="style0"/>
		</g>
	</g>
	<g>
		<path d="M998.7 121.2c-3.8-8-1.2-17.4 0.9-26s3.1-18.8-2.9-25.4c-1.6-1.8-3.7-3.2-5.3-5c-4-4.8-3.9-12.6 0.4-17.2 c4.2-4.6 12-5.4 17.1-1.7c4 2.9 6.1 7.9 7.1 12.7c1.6 7.4 1.4 15.2-0.6 22.5c-1.8 6.5-4.9 12.5-6.7 19c-2.1 7.8-2.3 15.9-2.5 23.9 " class="style1"/>
		<g>
			<path d="M1000.2 120.8c-5.6-13.4 3.8-26.9 2.4-40.6c-0.6-5.5-2.8-9.8-6.9-13.5c-2.9-2.6-5.3-5.2-5.6-9.3 c-0.3-4.2 1.5-8.4 5.1-10.6c8.3-5.1 16.2 1.3 18.7 9.3c2.4 7.6 2.3 16.1 0.4 23.7c-1.9 7.4-5.6 14.2-7.3 21.6 c-1.8 7.4-1.9 15-2.1 22.5c0 1.9 3 1.9 3 0c0.2-10.6 1-20.5 4.7-30.5c3.3-8.6 6.3-16.9 6-26.3c-0.4-12-6.7-29.7-22.2-24.3 c-5.2 1.8-8.7 6.4-9.3 11.8c-0.8 7.8 4 10.9 8.5 16.1c6.6 7.5 3.7 18.5 1.7 27.2c-1.8 7.9-3.3 15.9-0.1 23.6 C998 123.3 1000.9 122.5 1000.2 120.8L1000.2 120.8z" class="style0"/>
		</g>
	</g>
	<g>
		<path d="M929.8 121.1c1.8-3.9 1.1-8.6-0.8-12.5s-4.8-7.2-7.4-10.6C911 84.2 905 67.6 899.1 51.3 c-1-2.9-2.1-6-1.1-8.9c1.5-4.3 6.6-6 11-7c1.2-0.3 2.6-0.5 3.4 0.5c0.4 0.5 0.5 1.3 0.6 2c0.8 12.4-1.6 25.3 2.1 37.1 c2.4 7.7 7.3 14.3 11.1 21.4c5.2 9.8 8.4 20.6 9.4 31.6" class="style1"/>
		<g>
			<path d="M931.3 121.5c2.4-6.3 0.2-12.5-3.5-17.8c-4.5-6.5-9.5-12.5-13.3-19.5c-4.1-7.5-7.3-15.4-10.4-23.4 c-1.4-3.7-3.2-7.7-4.2-11.5c-1-3.8-1.1-7.1 2.2-9.5c1.5-1.1 3.9-2.2 5.8-2.4c2.8-0.3 2.9 0.2 3.5 2.4c0.6 2 0.1 5.1 0.1 7.1 c-0.1 4.2-0.3 8.3-0.2 12.5c0.1 7.4 1.2 14.5 4.3 21.2c3.4 7.4 8.2 13.9 11.5 21.3c3.8 8.3 6 17.1 6.9 26.2c0.2 1.9 3.2 1.9 3 0 c-1.4-14.2-6.2-26.9-13.5-39.1c-4.2-7.1-7.8-14.2-8.8-22.5c-0.9-7.7-0.1-15.4-0.2-23.2c0-3.5 0.8-8.9-3.8-9.4 c-4-0.4-10.2 2.3-12.7 5.5C894.2 44 897 50 898.8 55c2.4 6.7 4.9 13.3 7.8 19.8c3.3 7.4 7 14.6 11.6 21.2 c5.1 7.3 13.9 15 10.2 24.8C927.7 122.5 930.6 123.3 931.3 121.5L931.3 121.5z" class="style0"/>
		</g>
	</g>
	<g>
		<path d="M903.9 126.1c1.6-5.5 3.3-11.2 2.5-16.9c-1.7-11.9-13.2-19.7-19.2-30.1c-1.8-3.2-3.2-6.7-3.9-10.3 c-0.6-2.7-0.7-5.8 1-7.9c2-2.4 6-2.5 8.7-0.9c2.7 1.7 4.3 4.7 5.1 7.7c1.9 6.5 1.2 13.5 3.6 19.8c1.2 3.1 3.1 5.9 4.7 8.9 c4.8 8.8 6.9 19.1 5.8 29.2" class="style1"/>
		<g>
			<path d="M905.3 126.5c3.3-11 3.9-20.5-3-30.2c-6.4-9.1-15.5-16.4-17.6-27.9c-0.6-3.1-0.6-4.4 2.1-6.4 c1.5-2 3.3-2.2 5.4-0.7c0.6 0.5 1.2 1 1.7 1.5c2.4 2.7 3.2 6.6 3.7 10.1c0.8 5.2 0.8 10.5 2.8 15.4c2.4 6.2 6.5 11.4 8.5 17.8 c1.9 6.3 2.5 12.9 1.9 19.5c-0.2 1.9 2.8 1.9 3 0c0.7-7.4-0.1-14.8-2.5-21.9c-2.4-6.9-7.3-12.7-9.1-19.8c-2-7.7-1-29.3-14.8-26.4 c-12.6 2.6-2.3 21.6 1.8 27.1c3.8 5.1 8.4 9.5 11.8 14.9c5.5 8.5 4.2 16.8 1.5 26.1C901.9 127.6 904.8 128.4 905.3 126.5 L905.3 126.5z" class="style0"/>
		</g>
	</g>
	<g>
		<path d="M863.1 124c2.9-27.1-8.6-55.7 1.4-81.1c1.8-4.5 4.3-8.8 8.2-11.6c0.5-0.4 1.1-0.7 1.7-0.6 c0.9 0.1 1.4 1.1 1.8 1.9c2.5 6.6 1.4 14-0.1 20.9c-2.6 11.7-6.3 23.2-8 35.1c-1.7 11.9-1.2 24.5 4.3 35.2" class="style1"/>
		<g>
			<path d="M864.6 124c1.5-15.3-1.2-30.4-2.3-45.6c-0.6-7.8-0.8-15.8 0.5-23.6c0.7-3.9 1.7-7.8 3.2-11.5 c0.7-1.9 1.6-3.7 2.7-5.4c1.3-2.1 2.7-4.9 5.2-3.9c3.7 1.5 2.3 10.5 1.7 13.8c-0.6 3.9-1.6 7.8-2.5 11.7c-2 8-4.2 15.9-5.7 24 c-2.6 13.8-2.6 28.2 3.7 41c0.9 1.7 3.4 0.2 2.6-1.5c-9.1-18.6-3.7-39.2 1.2-58.1c2.1-8.2 4.9-16.9 4.3-25.5 c-0.2-3.3-1.1-11.8-6.3-9.9c-5.8 2.1-9.2 11-10.9 16.2c-2.5 7.7-3.2 15.9-3 24c0.3 18.1 4.5 36.1 2.7 54.3 C861.5 125.9 864.5 125.9 864.6 124L864.6 124z" class="style0"/>
		</g>
	</g>
	<g>
		<path d="M590.2 122.8c-1 4.3-2.7 8.4-4.9 12.2h3.5c8.7-13.2 14.3-28.4 16.2-44.1c0.7-6 0.8-12.2-1.5-17.7 s-7.7-10.1-13.7-9.9c-0.8 0-1.7 0.2-2.4 0.7c-1.1 0.9-1.2 2.4-1.2 3.8C586 86.3 594.3 104.8 590.2 122.8z" class="style1"/>
		<g>
			<path d="M588.7 122.4c-1 4.2-2.6 8.1-4.8 11.8c-0.6 1 0.2 2.3 1.3 2.3c1.1 0 2.9 0.4 3.9-0.1 c2.1-0.9 3.5-4.8 4.6-6.7c3.5-6.2 6.4-12.8 8.6-19.6c3.9-12.1 8.5-30.2 0.2-41.5c-2.9-3.9-7.7-7.2-12.8-6.9 c-5.7 0.4-5.3 5.9-5 10.4C585.7 89 592.2 105.5 588.7 122.4c-0.4 1.9 2.5 2.7 2.9 0.8c2.2-10.9 0.6-21.8-1.3-32.6 c-1.1-6.4-2.3-12.8-2.6-19.3c-0.1-2-0.4-3.4 1-5.1c1.5-1.8 2.4-1.7 4.7-0.9c3.1 1 5.8 3.5 7.5 6.2c6.4 10.4 2.2 26.2-1.2 37 c-1.9 6-4.3 11.9-7.3 17.4c-0.9 1.7-2.6 6-3.9 7.2c-0.6 0.5-2.1 0.4-3.2 0.4c0.4 0.8 0.9 1.5 1.3 2.3c2.3-4 4-8.1 5.1-12.5 C592.1 121.4 589.2 120.6 588.7 122.4z" class="style0"/>
		</g>
	</g>
	<g>
		<g>
			<path d="M506.4 125.3c-0.6-2.7-1.1-5.6-0.6-8.3s2.5-5.4 5.3-5.9c1.4-0.2 3 0.1 4.3-0.4c2.2-0.8 2.9-3.4 4.1-5.4 c1.4-2.4 3.8-4.3 6.6-4.6c2.8-0.3 5.7 1.1 6.9 3.6c2.3-2 4.9-3.8 7.9-4.1s6.4 1.3 7.2 4.2c0.3 1.1 0.2 2.2 0.7 3.2 c2.2 4 10.3-0.7 12.4 3.3c0.9 1.7 0.2 4.4 1.9 5.2c0.7 0.4 1.6 0.2 2.4 0.1c2.7-0.2 5.4 1.5 6.5 4c1.1 2.5 0.4 5.6-1.7 7.5" class="style3"/>
		</g>
		<g>
			<g>
				<path d="M507.9 124.9c-1.1-5.3-1.4-10.3 4.7-12.4c1.7-0.6 3.1 0 4.8-1.2c1.3-1 1.9-2.4 2.7-3.7 c2.3-4 7.8-8.8 11.7-2.6c0.6 0.9 1.6 0.9 2.4 0.3c3.2-2.7 7.2-5.2 10.8-2.1c2.2 1.8 1.4 2.5 2.5 4.7c0.2 0.4 0.4 0.7 0.7 1.1 c1.6 1.9 4.2 1.8 6.4 1.7c2.1-0.1 4.5-0.8 5.6 1.7c0.6 1.2 0.1 2.7 1 3.9c0.8 1.1 1.5 1.1 2.7 1.5c0.5 0.2 1.1-0.1 1.6 0 c4.3 0.6 7.2 5.1 3.8 8.9c-1.3 1.4 0.8 3.6 2.1 2.1c3.5-3.9 3.5-9.9-1.3-12.8c-1.1-0.7-2.1-0.9-3.3-1.2 c-1.2 0.1-2.4-0.2-3.5-0.8c-0.1-0.8-0.2-1.6-0.4-2.4c-0.5-1.7-1.3-2.9-3.1-3.6c-2.3-0.9-4.7 0.1-7.1-0.2c-3.8-0.5-3-5.3-6-7.5 c-5.1-3.8-10.9-0.5-15 2.9c0.8 0.1 1.6 0.2 2.4 0.3c-1.9-3-5-4.8-8.6-4.3c-4.3 0.6-6.1 3.6-8.3 6.9c-2.8 4-8 2.6-11.1 6.3 c-3.1 3.8-2.3 8.8-1.4 13.3C505.4 127.5 508.3 126.7 507.9 124.9L507.9 124.9z" class="style4"/>
			</g>
		</g>
		<g>
			<g>
				<path d="M515.4 122.2c-0.9-6.4 5-4.7 8.4-7.2c1.9-1.3 2.9-3.4 5-4.6c2.4-1.6 4.9-1.5 7.6 0.2 c0.5 0.6 1.1 1.2 1.6 1.8c1.9 1.5 4 1.7 6.3 1.5c1.4-0.1 3.2-0.7 4.6-0.3c4.9 1.2 3.1 8.5 2.3 11.4c-0.5 1.9 2.4 2.7 2.9 0.8 c1.2-4.4 2.6-12.6-2.8-14.8c-2.2-0.9-4.7-0.2-7-0.1c-4.2 0.2-5.2-3-8.7-4.3c-2.3-0.8-4.8-0.5-7 0.5c-3.2 1.4-4.9 5-8.2 6 c-2.2 0.7-3.8 0.3-5.7 2.1c-1.9 1.8-2.6 4.3-2.3 6.9C512.7 124.1 515.7 124.2 515.4 122.2L515.4 122.2z" class="style4"/>
			</g>
		</g>
		<g>
			<g>
				<path d="M524.8 124.1c-0.7-2.8 0.6-2.5 2.7-3c1.6-0.3 3-1.3 4.3-2.2c3-2 4.6-3.2 7.8 0.9 c1.6 2.1 2.8 4.8 4.2 7.1c1 1.7 3.6 0.2 2.6-1.5c-3.2-5.4-6.8-14.7-14.4-10.2c-1.7 1-3 2.3-4.9 2.8c-1.3 0.3-2.7 0.1-3.8 0.8 c-2.2 1.3-1.9 4-1.4 6.1C522.4 126.8 525.3 126 524.8 124.1L524.8 124.1z" class="style4"/>
			</g>
		</g>
	</g>
	<g>
		<g>
			<path d="M838.4 120.3c-0.6-2.7-1.1-5.6-0.6-8.3s2.5-5.4 5.3-5.9c1.4-0.2 3 0.1 4.3-0.4c2.2-0.8 2.9-3.4 4.1-5.4 c1.4-2.4 3.8-4.3 6.6-4.6c2.8-0.3 5.7 1.1 6.9 3.6c2.3-2 4.9-3.8 7.9-4.1s6.4 1.3 7.2 4.2c0.3 1.1 0.2 2.2 0.7 3.2 c2.2 4 10.3-0.7 12.4 3.3c0.9 1.7 0.2 4.4 1.9 5.2c0.7 0.4 1.6 0.2 2.4 0.1c2.7-0.2 5.4 1.5 6.5 4c1.1 2.5 0.4 5.6-1.7 7.5" class="style3"/>
		</g>
		<g>
			<g>
				<path d="M839.9 119.9c-1.1-5.3-1.4-10.3 4.7-12.4c1.7-0.6 3.1 0 4.8-1.2c1.3-1 1.9-2.4 2.7-3.7 c2.3-4 7.8-8.8 11.7-2.6c0.6 0.9 1.6 0.9 2.4 0.3c3.2-2.7 7.2-5.2 10.8-2.1c2.2 1.8 1.4 2.5 2.5 4.7c0.2 0.4 0.4 0.7 0.7 1.1 c1.6 1.9 4.2 1.8 6.4 1.7c2.1-0.1 4.5-0.8 5.6 1.7c0.6 1.2 0.1 2.7 1 3.9c0.8 1.1 1.5 1.1 2.7 1.5c0.5 0.2 1.1-0.1 1.6 0 c4.3 0.6 7.2 5.1 3.8 8.9c-1.3 1.4 0.8 3.6 2.1 2.1c3.5-3.9 3.5-9.9-1.3-12.8c-1.1-0.7-2.1-0.9-3.3-1.2 c-1.2 0.1-2.4-0.2-3.5-0.8c-0.1-0.8-0.2-1.6-0.4-2.4c-0.5-1.7-1.3-2.9-3.1-3.6c-2.3-0.9-4.7 0.1-7.1-0.2c-3.8-0.5-3-5.3-6-7.5 c-5.1-3.8-10.9-0.5-15 2.9c0.8 0.1 1.6 0.2 2.4 0.3c-1.9-3-5-4.8-8.6-4.3c-4.3 0.6-6.1 3.6-8.3 6.9c-2.8 4-8 2.6-11.1 6.3 c-3.1 3.8-2.3 8.8-1.4 13.3C837.4 122.5 840.3 121.7 839.9 119.9L839.9 119.9z" class="style4"/>
			</g>
		</g>
		<g>
			<g>
				<path d="M847.4 117.2c-0.9-6.4 5-4.7 8.4-7.2c1.9-1.3 2.9-3.4 5-4.6c2.4-1.6 4.9-1.5 7.6 0.2 c0.5 0.6 1.1 1.2 1.6 1.8c1.9 1.5 4 1.7 6.3 1.5c1.4-0.1 3.2-0.7 4.6-0.3c4.9 1.2 3.1 8.5 2.3 11.4c-0.5 1.9 2.4 2.7 2.9 0.8 c1.2-4.4 2.6-12.6-2.8-14.8c-2.2-0.9-4.7-0.2-7-0.1c-4.2 0.2-5.2-3-8.7-4.3c-2.3-0.8-4.8-0.5-7 0.5c-3.2 1.4-4.9 5-8.2 6 c-2.2 0.7-3.8 0.3-5.7 2.1c-1.9 1.8-2.6 4.3-2.3 6.9C844.7 119.1 847.7 119.2 847.4 117.2L847.4 117.2z" class="style4"/>
			</g>
		</g>
		<g>
			<g>
				<path d="M856.8 119.1c-0.7-2.8 0.6-2.5 2.7-3c1.6-0.3 3-1.3 4.3-2.2c3-2 4.6-3.2 7.8 0.9 c1.6 2.1 2.8 4.8 4.2 7.1c1 1.7 3.6 0.2 2.6-1.5c-3.2-5.4-6.8-14.7-14.4-10.2c-1.7 1-3 2.3-4.9 2.8c-1.3 0.3-2.7 0.1-3.8 0.8 c-2.2 1.3-1.9 4-1.4 6.1C854.4 121.8 857.3 121 856.8 119.1L856.8 119.1z" class="style4"/>
			</g>
		</g>
	</g>
</g>
<path d="M0 122c47 0 66.9-3.3 79.3-5.3c26.3-4.2 31.9 1 59.3-1.5c11.7-1.1 23.9-2.1 35.7-1.3 c15.5 1.2 28.8 5.6 43.2 8.4c20.8 4.1 45-1.9 66.8-4.9c11.1-1.5 21.2 2.8 32.3 1.4c99.2-12.9 141.4 3.1 194.9 3.1s67.7-3.4 80.1-5.4 c26.3-4.2 31.9 1 59.3-1.4c11.7-1.1 23.8-2.1 35.6-1.2c15.5 1.2 28.7 5.6 43.1 8.4c20.8 4.1 44.9-1.9 66.7-4.9 c11.1-1.5 21.2 2.8 32.3 1.4C927.8 106 971.7 122 1024 122c0 0 0 13 0 13H0V122z" class="style5"/>
</svg>
