<svg xmlns="http://www.w3.org/2000/svg" xmlns:xlink="http://www.w3.org/1999/xlink" version="1.1" class="fish" x="0px" y="0px" viewBox="0 0 131 88" enable-background="new 0 0 131 88" xml:space="preserve" preserveAspectRatio="xMinYMin meet" width="100%" height="100%">
<g>
	<path d="M41.7 70.5c8.3 8.1 19.8 13.6 31.7 14c31.5 1 32.4-18.2 30.8-25.9" class="style0"/>
</g>
<g>
	<path d="M39.8 22.8C45.7 15.1 56.5 9.4 70.4 6c19-4.7 24.6-3 28.3 1.6c6.3 7.8 4.3 19.9 3.1 26" class="style0"/>
</g>
<path d="M127.4 32.2c0-4.5-3.6-9.2-9.9-2.7c0 0-9.6 11.7-17.1 2.6c0 0-35.5-35.7-72.7 0c-8 7.6-7.5 14.1-19 14.1 C6.9 46.2 4 48 4 49.7V53c0 2.1 3.7 3.6 5.8 3.6c10.1 0 16.1 3 17.1 3.8c37.7 32.9 73.3 0 73.3 0c7.3-5.6 17.6 3.1 17.6 3.1 c5.9 5.3 9.7 2.3 9.7-1.5c0-4-2-8.6-2-15.1C125.5 39.7 127.4 36.7 127.4 32.2z" class="style0"/>
<path d="M51.5 18.4c13.1 11.4 14.2 42.4 0 55.7" class="style1"/>
<circle cx="39.5" cy="46.2" r="8.5" class="style2"/>
<circle cx="39.5" cy="46.2" r="5.5" class="style3"/>
<circle cx="41.9" cy="43.9" r="3.1" class="style4"/>
<path d="M60.2 16.2c0 0 3.7-7.2 8.6-9.8" class="style1"/>
<path d="M72 17.1c0 0 4.1-9.3 12.3-13.7" class="style1"/>
<path d="M82.8 20.6c0 0 2.2-8.4 11.2-16.5" class="style1"/>
<path d="M90.9 24.8c0 0 5.9-7.7 8.9-15.7" class="style1"/>
<path d="M60.2 75c0 0 4 6.5 9.6 9.2" class="style1"/>
<path d="M72 74.1c2.7 5 10.9 10 10.9 10" class="style1"/>
<line x1="84.6" y1="70.1" x2="90.9" y2="82.3" class="style1"/>
<path d="M94 65c2 6.1 2.9 8.1 3 14.1" class="style1"/>
<g>
	<g>
		<path d="M40.9 23.9C46 17.4 53.4 13.3 61 10.4c8.1-3 17.3-5.5 26-5.7c15.5-0.4 15.6 16.9 13.4 28.5 c-0.4 1.9 2.5 2.7 2.9 0.8c2.2-11.3 2.6-30.4-12.6-32.1c-9.2-1.1-19.6 2-28.2 4.9c-9 3-17.8 7.5-23.8 15 C37.6 23.2 39.7 25.4 40.9 23.9L40.9 23.9z" class="style5"/>
	</g>
</g>
<g>
	<g>
		<path d="M40.6 71.6c13.7 12.9 36.9 20 54.5 10.4c8.7-4.7 12.4-14.3 10.5-23.8c-0.4-1.9-3.3-1.1-2.9 0.8 c1.6 8.2-1.6 16.4-9.1 20.4c-16.4 8.8-38.2 2-50.9-10C41.3 68.2 39.2 70.3 40.6 71.6L40.6 71.6z" class="style5"/>
	</g>
</g>
<path d="M94 65" class="style1"/>
<path d="M108.2 41.7c4.3-0.3 12-2.4 19.3-9.5" class="style1"/>
<path d="M108.2 48.3c0 0 8.2-1.2 16.5 0" class="style1"/>
<path d="M108.2 53.8c0 0 12.5 0.3 19.2 6.3" class="style1"/>
<path d="M127.4 32.2c0-4.5-3.6-9.2-9.9-2.7 c0 0-9.6 11.7-17.1 2.6c0 0-35.5-35.7-72.7 0c-8 7.6-7.5 14.1-19 14.1C6.9 46.2 4 48 4 49.7V53c0 2.1 3.7 3.6 5.8 3.6 c10.1 0 16.1 3 17.1 3.8c37.7 32.9 73.3 0 73.3 0c7.3-5.6 17.6 3.1 17.6 3.1c5.9 5.3 9.7 2.3 9.7-1.5c0-4-2-8.6-2-15.1 C125.5 39.7 127.4 36.7 127.4 32.2z" class="style6"/>
</svg>
