<svg xmlns="http://www.w3.org/2000/svg" xmlns:xlink="http://www.w3.org/1999/xlink" version="1.1" class="submarine" x="0px" y="0px" viewBox="0 0 517 417.3" enable-background="new 0 0 517 417.3" xml:space="preserve" preserveAspectRatio="xMinYMin meet" width="100%" height="100%">
<g class="periscope">
	<path d="M348.9 101.2h-16.1c-2.2 0-4-1.8-4-4V43.8c0-23.2 15.5-38.9 37.2-38.9h31.9c2.2 0 4 1.8 4 4V25 c0 2.2-1.8 4-4 4H366c-4.7 0-13.1 1.6-13.1 14.9v53.4C352.9 99.4 351.1 101.2 348.9 101.2z" class="style0"/>
	<path d="M390.2 29h7.6c2.2 0 4-1.8 4-4V8.9c0-2.2-1.8-4-4-4h-7.6V29z" class="style1"/>
	<line x1="391" y1="3.3" x2="391" y2="29.3" class="style2"/>
	<line x1="328" y1="44.3" x2="352" y2="44.3" class="style2"/>
	<circle cx="337.7" cy="35.6" r="2" class="style3"/>
	<circle cx="381.8" cy="20.4" r="2" class="style3"/>
	<circle cx="343.3" cy="50.9" r="2" class="style3"/>
	<path d="M348.9 101.2h-16.1c-2.2 0-4-1.8-4-4V43.8 c0-23.2 15.5-38.9 37.2-38.9h31.9c2.2 0 4 1.8 4 4V25c0 2.2-1.8 4-4 4H366c-4.7 0-13.1 1.6-13.1 14.9v53.4 C352.9 99.4 351.1 101.2 348.9 101.2z" class="style4"/>
</g>

<g class="body">
	<g class="roof">
		<path d="M275.4 70.8h86.2c8.3 0 15 6.7 15 15v36.3 c0 8.3-6.7 15-15 15h-86.2c-8.3 0-15-6.7-15-15V85.8C260.4 77.5 267.1 70.8 275.4 70.8z" class="style5"/>
		<line x1="261" y1="83.3" x2="376" y2="83.3" class="style6"/>
		<circle cx="274.2" cy="91.8" r="2" class="style3"/>
		<circle cx="295.9" cy="91.8" r="2" class="style3"/>
		<circle cx="317.6" cy="91.8" r="2" class="style3"/>
		<circle cx="339.3" cy="91.8" r="2" class="style3"/>
		<circle cx="360.9" cy="91.8" r="2" class="style3"/>
	</g>
	<g class="fins">
		<path d="M140 199.9c9-16.2-1.9-22.6-24.3-33 c-9.2-4.3-12.8-7.1-12.8-16.9c0-9.8 0-55.4 0-64.1c0-8.4 4.9-15 14.8-15c10 0 84-3.3 108.7 57.6L140 199.9z" class="style7"/>
		<polyline points="131,175.3 131,91.7 103.1,86.4" class="style6"/>
		<circle cx="138.5" cy="101.5" r="2" class="style3"/>
		<circle cx="138.5" cy="155.5" r="2" class="style3"/>
	</g>
	<polygon points="146.3,304.6 78.8,269.3 78.8,244.8 146.3,209.5" class="style5"/>
	<path d="M357 102c-128.8 0-233.3 69.4-233.3 155s104.5 155 233.3 155c85.6 0 155-69.4 155-155S442.6 102 357 102z" class="style0"/>
	<path d="M402 108.7c63.6 19.3 110 78.4 110 148.4c0 70.4-46.9 129.8-111.1 148.7c0 0 42.3-44.4 42.3-148.7 S402 108.7 402 108.7z" class="style8"/>
	<path d="M462.7 143.7c0 0 9.2 11.2 8.6 33.6c-0.5 22.5-7.3 18.6-8.6 30c-2.4 19.9 13.1 38-16.3 55.1l-0.3 23.5 c0 0 11-15.6 20.1-28.9c9.1-13.3-4.2-30.9 5.4-48.8c9.6-17.9 10.2-22.2 11.5-41.3c0.3-4.6-5-10.7-8.9-14.2 C468.5 147.4 462.7 143.7 462.7 143.7z" class="style9"/>
	<path d="M442 125.6c0 0 10.8 5.7 10.4 21.4s-5.1 16.1-6 24.1c-1.7 13.9 10 20.9-2.7 38.1l2.4 19.3 c0 0 1.2-15.2 7.5-24.5c6.3-9.3-3.9-19.6 2.8-32.1c6.7-12.5-0.7-19 0.2-32.4c0.2-3.2-3.6-4.9-6.2-7.4 C446.4 128.4 442 125.6 442 125.6z" class="style9"/>
	<path d="M406.8 403.9c26.9-8.5 43.8-87.2 43.8-146.8s-16.1-138-43-146.5l-17.5-4.9c26.9 8.5 48.2 91.9 48.2 151.5 S417 400 390.1 408.5L406.8 403.9z" class="style1"/>
	<path d="M406.8 403.9c26.9-8.5 43.8-87.2 43.8-146.8 s-16.1-138-43-146.5l-17.5-4.9c26.9 8.5 48.2 91.9 48.2 151.5S417 400 390.1 408.5L406.8 403.9z" class="style10"/>
	<path d="M357 102c-128.8 0-233.3 69.4-233.3 155 s104.5 155 233.3 155c85.6 0 155-69.4 155-155S442.6 102 357 102z" class="style4"/>
	<g class="detail">
		<path d="M243 122c-16 32.6-26.9 90.2-26.9 135.1 c0 27.7 4.1 60.1 11 88.6" class="style10"/>
		<path d="M228.9 264.6h-50.8c-4 0-7.2-3.2-7.2-7.2v-0.7 c0-4 3.2-7.2 7.2-7.2h50.8c4 0 7.2 3.2 7.2 7.2v0.7C236.1 261.4 232.9 264.6 228.9 264.6z" class="style7"/>
		<line x1="428" y1="344.3" x2="167" y2="344.3" class="style10"/>
		<circle cx="192.3" cy="355.2" r="2" class="style3"/>
		<circle cx="218.8" cy="355.2" r="2" class="style3"/>
		<circle cx="245.3" cy="355.2" r="2" class="style3"/>
		<circle cx="271.8" cy="355.2" r="2" class="style3"/>
		<circle cx="298.3" cy="355.2" r="2" class="style3"/>
		<circle cx="324.8" cy="355.2" r="2" class="style3"/>
		<circle cx="351.3" cy="355.2" r="2" class="style3"/>
		<circle cx="377.8" cy="355.2" r="2" class="style3"/>
		<circle cx="404.3" cy="355.2" r="2" class="style3"/>
		<circle cx="181.1" cy="335.9" r="2" class="style3"/>
		<circle cx="234.1" cy="335.9" r="2" class="style3"/>
		<circle cx="234.1" cy="179.3" r="2" class="style3"/>
		<circle cx="211.6" cy="194.6" r="2" class="style3"/>
		<circle cx="207.6" cy="234.7" r="2" class="style3"/>
		<circle cx="242.9" cy="145.6" r="2" class="style3"/>
		<circle cx="218.8" cy="158.5" r="2" class="style3"/>
		<circle cx="206.8" cy="279.7" r="2" class="style3"/>
		<circle cx="226.9" cy="215.5" r="2" class="style3"/>
		<circle cx="226.9" cy="299.8" r="2" class="style3"/>
		<circle cx="211.6" cy="320.6" r="2" class="style3"/>
		<circle cx="287.1" cy="335.9" r="2" class="style3"/>
		<circle cx="340.1" cy="335.9" r="2" class="style3"/>
		<circle cx="393.1" cy="335.9" r="2" class="style3"/>
	</g>
	<g class="window">
		<circle cx="318.4" cy="257.1" r="64.4" class="style11"/>
		<circle cx="318.4" cy="257.1" r="47.5" class="style8"/>
		<g>
			<path d="M288.7 273.1c-2.9 12.8-8 12.8-8 12.8l9 9c0 0-0.1-17.9 20.6-29.4c5.7-3.1 13.9-2.5 16.9-8.2 c1.1-2.1 1.3-4.6 1.4-7c0.1-6.2-0.7-12.3-0.2-18.5c0.5-6.1 9.5-18.1 9.5-18.1l-9-3c0 0-6.5 9.1-7.6 11.7 c-3.1 7 0.7 18.8-2.9 25.5C312.1 259.5 291.6 260.3 288.7 273.1z" class="style9"/>
		</g>
		<path d="M314.4 210c-6.3 1.7-7.8 5.1-7.5 11c0.2 4.2 0.8 7.9-1.6 11.6c-2 3.3-5.2 5.7-8.3 7.8 c-5.9 3.9-12 1.9-16.3 7.7c-4.4 5.9-8.6 19.6-8.6 19.6l4.9 12c0 0 2.1-17.1 6-22.2c4.2-5.6 18.9-6.9 24.5-10.9 c4.7-3.4 5.9-7.1 7.6-12.8c0.7-7.1-3.3-8.9-3.2-12c0.2-7.7 10.8-10.4 12-12.2C319.2 208.4 314.4 210 314.4 210z" class="style9"/>
		<circle cx="318.4" cy="257.1" r="47.5" class="style10"/>
		<circle cx="373.8" cy="257.2" r="2" class="style3"/>
		<circle cx="366.5" cy="229.5" r="2" class="style3"/>
		<circle cx="346.3" cy="209.2" r="2" class="style3"/>
		<circle cx="318.6" cy="201.7" r="2" class="style3"/>
		<circle cx="290.9" cy="209.1" r="2" class="style3"/>
		<circle cx="270.6" cy="229.3" r="2" class="style3"/>
		<circle cx="263.1" cy="256.9" r="2" class="style3"/>
		<circle cx="270.4" cy="284.6" r="2" class="style3"/>
		<circle cx="290.6" cy="304.9" r="2" class="style3"/>
		<circle cx="318.3" cy="312.4" r="2" class="style3"/>
		<circle cx="346" cy="305.1" r="2" class="style3"/>
		<circle cx="366.3" cy="284.9" r="2" class="style3"/>
	</g>
</g>

<g class="propeller">
  <g class="scoop_copy_3">
    <path d="M81.8 274.5c0 0 12.3 4.9 11.9 14.2c-0.5 14.8-26.1 20.2-24 34.2c1.7 11.1 25.6 15.2 39.9 2.2 c14.5-13.2 15.1-27.2 5.6-40.4s-21-15.4-21-15.4L81.8 274.5z" class="style12"/>
    <path d="M81.8 274.5c0 0 12.3 4.9 11.9 14.2 c-0.5 14.8-26.1 20.2-24 34.2c1.7 11.1 25.6 15.2 39.9 2.2c14.5-13.2 15.1-27.2 5.6-40.4s-21-15.4-21-15.4L81.8 274.5z" class="style13"/>
    <line x1="101.1" y1="272.1" x2="90.8" y2="280.9" class="style6"/>
    <line x1="94.7" y1="332.7" x2="76.2" y2="308.4" class="style6"/>
    <circle cx="84.7" cy="311.9" r="2" class="style3"/>
    <circle cx="101.6" cy="279.7" r="2" class="style3"/>
    <circle cx="83.5" cy="326.7" r="2" class="style3"/>
    <circle cx="95.9" cy="324.6" r="2" class="style3"/>
  </g>
  <g class="scoop_copy_4">
    <path d="M96.2 259.5c0 0 8.4-10.2 17.2-7c13.9 5.1 11.2 31.1 25.1 33.4c11.1 1.8 22.4-19.7 14.5-37.2 c-8.1-17.9-21.2-22.8-36.7-17.8c-15.6 5-21.1 15.2-21.1 15.2L96.2 259.5z" class="style12"/>
    <path d="M96.2 259.5c0 0 8.4-10.2 17.2-7 c13.9 5.1 11.2 31.1 25.1 33.4c11.1 1.8 22.4-19.7 14.5-37.2c-8.1-17.9-21.2-22.8-36.7-17.8c-15.6 5-21.1 15.2-21.1 15.2 L96.2 259.5z" class="style13"/>
    <line x1="99.9" y1="240.3" x2="105.1" y2="252.9" class="style6"/>
    <line x1="155.6" y1="265.2" x2="126.8" y2="275.3" class="style6"/>
    <circle cx="132.7" cy="268.3" r="2" class="style3"/>
    <circle cx="107.3" cy="242.3" r="2" class="style3"/>
    <circle cx="146.3" cy="274" r="2" class="style3"/>
    <circle cx="148.2" cy="261.6" r="2" class="style3"/>
  </g>
  <g class="Layer_16">
    <path d="M86.4 241.1c0 0-7.1-11.1-1.3-18.5c9.1-11.6 33-1 39.5-13.6c5.2-10-11.8-27.4-30.9-25.3 c-19.5 2.1-28.2 13.1-28.3 29.4s7.9 24.8 7.9 24.8L86.4 241.1z" class="style12"/>
    <path d="M86.4 241.1c0 0-7.1-11.1-1.3-18.5 c9.1-11.6 33-1 39.5-13.6c5.2-10-11.8-27.4-30.9-25.3c-19.5 2.1-28.2 13.1-28.3 29.4s7.9 24.8 7.9 24.8L86.4 241.1z" class="style13"/>
    <line x1="69.3" y1="231.7" x2="82.9" y2="230.6" class="style6"/>
    <line x1="110.2" y1="186.4" x2="110.8" y2="216.9" class="style6"/>
    <circle cx="106" cy="209.2" r="2" class="style3"/>
    <circle cx="73.5" cy="225.3" r="2" class="style3"/>
    <circle cx="115.7" cy="197.9" r="2" class="style3"/>
    <circle cx="104.4" cy="192.3" r="2" class="style3"/>
  </g>
  <g class="Layer_17">
    <path d="M65.9 244.7c0 0-12.8 3.3-18-4.5c-8.2-12.2 9.2-31.7-0.7-41.8c-7.9-8-29.7 2.8-33.6 21.6 c-4 19.2 3.7 30.9 19.2 36s26 0.1 26 0.1L65.9 244.7z" class="style12"/>
    <path d="M65.9 244.7c0 0-12.8 3.3-18-4.5 c-8.2-12.2 9.2-31.7-0.7-41.8c-7.9-8-29.7 2.8-33.6 21.6c-4 19.2 3.7 30.9 19.2 36s26 0.1 26 0.1L65.9 244.7z" class="style13"/>
    <line x1="51.7" y1="258.1" x2="54.9" y2="244.9" class="style6"/>
    <line x1="21.2" y1="205.2" x2="50.5" y2="214.1" class="style6"/>
    <circle cx="41.6" cy="216.2" r="2" class="style3"/>
    <circle cx="46.8" cy="252.2" r="2" class="style3"/>
    <circle cx="33.9" cy="203.6" r="2" class="style3"/>
    <circle cx="25" cy="212.5" r="2" class="style3"/>
  </g>
  <g class="Layer_18">
    <path d="M63 265.4c0 0-0.8 13.2-9.8 15.7c-14.2 4.1-27.3-18.6-39.9-12.3c-10.1 5-6.5 29.1 10.2 38.6 c17.1 9.8 30.5 6 40.2-7.2c9.7-13.2 8.2-24.7 8.2-24.7L63 265.4z" class="style12"/>
    <path d="M63 265.4c0 0-0.8 13.2-9.8 15.7 c-14.2 4.1-27.3-18.6-39.9-12.3c-10.1 5-6.5 29.1 10.2 38.6c17.1 9.8 30.5 6 40.2-7.2c9.7-13.2 8.2-24.7 8.2-24.7L63 265.4z" class="style13"/>
    <line x1="71.3" y1="283.1" x2="59.7" y2="275.9" class="style6"/>
    <line x1="11.6" y1="295.7" x2="29.1" y2="270.6" class="style6"/>
    <circle cx="28.4" cy="279.7" r="2" class="style3"/>
    <circle cx="64.2" cy="285.8" r="2" class="style3"/>
    <circle cx="14" cy="283.1" r="2" class="style3"/>
    <circle cx="19.8" cy="294.3" r="2" class="style3"/>
  </g>
  <g class="center_1_">
    <circle cx="78.8" cy="257.1" r="20" class="style14"/>
    <circle cx="78.8" cy="257.1" r="12.3" class="style15"/>
  </g>
  <circle cx="78.8" cy="257.1" r="78.8" class="style16"/>
</g>

</svg>
