<svg xmlns="http://www.w3.org/2000/svg" xmlns:xlink="http://www.w3.org/1999/xlink" version="1.1" class="waves" x="0px" y="0px" viewBox="0 0 1024 768" enable-background="new 0 0 1024 768" xml:space="preserve" preserveAspectRatio="xMinYMin meet" width="100%" height="100%">
<path d="M1024 144c-105 0-192.4-103.4-390.8-46.1c-22.3 6.4-42.5 18.9-64.7 25.7c-43.6 13.2-91.8 9.2-133.5-9.2 c-28.8-12.7-55.2-32.2-86.2-37.4c-23.6-4-47.7 0.8-71.2 5.5c-54.8 11.1-65.5 18.8-118.1 37.6C134.9 128.9 93.7 144 0 144v71 c71.2-0.1 157-38.8 231.6-39.4c84.3-0.7 170.8 37.2 252.9 56.1c31.9 7.3 64.1 14.4 96.8 14.1c61.7-0.5 130.2-59 191.8-61.2 C877.1 180.9 945 215 1024 215V144z" class="style0"/>
<path d="M0 613c105 0 192.4 87.5 390.8 39c22.3-5.4 42.5-16.1 64.7-21.8c43.6-11.2 91.8-7.9 133.5 7.7 c28.8 10.8 55.2 27.3 86.2 31.7c23.6 3.3 47.7-0.7 71.2-4.7c54.8-9.4 65.5-15.9 118.1-31.8c24.7-7.5 65.6-20 159.6-20v-61 c-111.4 0-214.9 59.4-392 45c-88.1-7.2-112.3-32.9-199.4-41.9c-61.3-6.3-97.7 23-181.7 23C146.8 578.1 79 552 0 552V613z" class="style0"/>
<g>
	<path d="M1023.9 327c-58.3 19.4-124.8 42.4-168.4 19.7c-16.4-8.5-29.6-22.2-45.9-30.8c-18.2-9.7-39.3-12.7-60-12.7 c-62.9 0-122.4 26-182.5 44.2c-72.5 21.9-154.7 31.6-223 2.7c-0.9-0.4-1.7-0.7-2.6-1.1c-0.5-0.2-1-0.5-1.5-0.7 c-0.8-0.4-1.6-0.7-2.4-1.1c-0.5-0.2-1.1-0.5-1.6-0.8c-0.8-0.4-1.5-0.7-2.3-1.1c-0.5-0.3-1.1-0.5-1.6-0.8c-0.7-0.4-1.5-0.8-2.2-1.1 c-0.5-0.3-1.1-0.6-1.6-0.8c-0.7-0.4-1.5-0.8-2.2-1.2c-0.5-0.3-1-0.6-1.6-0.9c-0.8-0.4-1.5-0.9-2.3-1.3c-0.5-0.3-1-0.6-1.5-0.8 c-0.8-0.5-1.7-1-2.5-1.5c-0.4-0.2-0.8-0.5-1.2-0.7c-1.2-0.8-2.4-1.5-3.7-2.3c-1.2-0.8-2.3-1.5-3.4-2.3c-2.3-1.6-4.5-3.2-6.8-4.8 s-4.5-3.3-6.7-4.9c-3.3-2.5-6.7-5-10-7.4c-1.1-0.8-2.2-1.6-3.4-2.4c-7.9-5.6-15.9-10.9-24.7-15l0 0h0 c-28.1-13.2-60.4-13.5-91.4-11.3C114 289.2 58.2 307.6 0 326.9v83c40.2-11.3 164.1-38.7 236.7-1.8c20.1 10.2 38.5 23.6 58 35 c4.5 2.6 9.1 5.1 13.7 7.5c1.4 0.7 2.8 1.4 4.3 2.1c0.4 0.2 0.9 0.4 1.3 0.6c1 0.5 2 0.9 3 1.4c0.5 0.2 1 0.5 1.5 0.7 c1 0.4 2 0.9 3 1.3c0.5 0.2 0.9 0.4 1.4 0.6c1.3 0.5 2.6 1.1 3.9 1.6c0.1 0.1 0.3 0.1 0.4 0.2c1.5 0.6 2.9 1.1 4.4 1.7 c0.4 0.2 0.9 0.3 1.3 0.5c1 0.4 2.1 0.7 3.1 1.1c0.5 0.2 1.1 0.4 1.6 0.5c0.4 0.1 1.3 0.3 1.3 0.4v0c41 13.7 86.4 16.8 130.3 19.6 c21.8 1.4 44 2.7 65-3.3c18.4-5.2 34.7-15.8 50.4-26.6c39.5-27.2 77.1-57 112.6-89.2c16.1-14.6 33-30.4 54.3-35 c35.1-7.6 65.1 21 92.8 43.9c70.7 58.6 139.5 48.8 179.6 37.5C1023.9 409.9 1024 327 1023.9 327z" class="style0"/>
</g>
</svg>
